<svg width="566" height="20" viewBox="0 0 566 20" fill="none" xmlns="http://www.w3.org/2000/svg">
<path d="M7.976 7.192C7.976 7.75733 7.84267 8.29067 7.576 8.792C7.30933 9.29333 6.88267 9.704 6.296 10.024C5.70933 10.3333 4.95733 10.488 4.04 10.488H2.024V15H0.2V3.88H4.04C4.89333 3.88 5.61333 4.02933 6.2 4.328C6.79733 4.616 7.24 5.01067 7.528 5.512C7.82667 6.01333 7.976 6.57333 7.976 7.192ZM4.04 9C4.73333 9 5.25067 8.84533 5.592 8.536C5.93333 8.216 6.104 7.768 6.104 7.192C6.104 5.976 5.416 5.368 4.04 5.368H2.024V9H4.04ZM11.5396 3.16V15H9.71563V3.16H11.5396ZM22.0144 10.376C22.0144 10.7067 21.993 11.0053 21.9504 11.272H15.2144C15.2677 11.976 15.529 12.5413 15.9984 12.968C16.4677 13.3947 17.0437 13.608 17.7264 13.608C18.7077 13.608 19.401 13.1973 19.8064 12.376H21.7744C21.5077 13.1867 21.0224 13.8533 20.3184 14.376C19.625 14.888 18.761 15.144 17.7264 15.144C16.8837 15.144 16.1264 14.9573 15.4544 14.584C14.793 14.2 14.2704 13.6667 13.8864 12.984C13.513 12.2907 13.3264 11.4907 13.3264 10.584C13.3264 9.67733 13.5077 8.88267 13.8704 8.2C14.2437 7.50667 14.761 6.97333 15.4224 6.6C16.0944 6.22667 16.8624 6.04 17.7264 6.04C18.5584 6.04 19.2997 6.22133 19.9504 6.584C20.601 6.94667 21.1077 7.45867 21.4704 8.12C21.833 8.77067 22.0144 9.52267 22.0144 10.376ZM20.1104 9.8C20.0997 9.128 19.8597 8.58933 19.3904 8.184C18.921 7.77867 18.3397 7.576 17.6464 7.576C17.017 7.576 16.4784 7.77867 16.0304 8.184C15.5824 8.57867 15.3157 9.11733 15.2304 9.8H20.1104ZM23.2014 10.552C23.2014 9.66667 23.3827 8.88267 23.7454 8.2C24.1187 7.51733 24.62 6.98933 25.2494 6.616C25.8894 6.232 26.5934 6.04 27.3614 6.04C28.0547 6.04 28.6574 6.17867 29.1694 6.456C29.692 6.72267 30.108 7.05867 30.4174 7.464V6.184H32.2574V15H30.4174V13.688C30.108 14.104 29.6867 14.4507 29.1534 14.728C28.62 15.0053 28.012 15.144 27.3294 15.144C26.572 15.144 25.8787 14.952 25.2494 14.568C24.62 14.1733 24.1187 13.6293 23.7454 12.936C23.3827 12.232 23.2014 11.4373 23.2014 10.552ZM30.4174 10.584C30.4174 9.976 30.2894 9.448 30.0334 9C29.788 8.552 29.4627 8.21067 29.0574 7.976C28.652 7.74133 28.2147 7.624 27.7454 7.624C27.276 7.624 26.8387 7.74133 26.4334 7.976C26.028 8.2 25.6974 8.536 25.4414 8.984C25.196 9.42133 25.0734 9.944 25.0734 10.552C25.0734 11.16 25.196 11.6933 25.4414 12.152C25.6974 12.6107 26.028 12.9627 26.4334 13.208C26.8494 13.4427 27.2867 13.56 27.7454 13.56C28.2147 13.56 28.652 13.4427 29.0574 13.208C29.4627 12.9733 29.788 12.632 30.0334 12.184C30.2894 11.7253 30.4174 11.192 30.4174 10.584ZM37.8531 15.144C37.1598 15.144 36.5358 15.0213 35.9811 14.776C35.4371 14.52 35.0051 14.1787 34.6851 13.752C34.3651 13.3147 34.1945 12.8293 34.1731 12.296H36.0611C36.0931 12.6693 36.2691 12.984 36.5891 13.24C36.9198 13.4853 37.3305 13.608 37.8211 13.608C38.3331 13.608 38.7278 13.512 39.0051 13.32C39.2931 13.1173 39.4371 12.8613 39.4371 12.552C39.4371 12.2213 39.2771 11.976 38.9571 11.816C38.6478 11.656 38.1518 11.48 37.4691 11.288C36.8078 11.1067 36.2691 10.9307 35.8531 10.76C35.4371 10.5893 35.0745 10.328 34.7651 9.976C34.4665 9.624 34.3171 9.16 34.3171 8.584C34.3171 8.11467 34.4558 7.688 34.7331 7.304C35.0105 6.90933 35.4051 6.6 35.9171 6.376C36.4398 6.152 37.0371 6.04 37.7091 6.04C38.7118 6.04 39.5171 6.296 40.1251 6.808C40.7438 7.30933 41.0745 7.99733 41.1171 8.872H39.2931C39.2611 8.47733 39.1011 8.16267 38.8131 7.928C38.5251 7.69333 38.1358 7.576 37.6451 7.576C37.1651 7.576 36.7971 7.66667 36.5411 7.848C36.2851 8.02933 36.1571 8.26933 36.1571 8.568C36.1571 8.80267 36.2425 9 36.4131 9.16C36.5838 9.32 36.7918 9.448 37.0371 9.544C37.2825 9.62933 37.6451 9.74133 38.1251 9.88C38.7651 10.0507 39.2878 10.2267 39.6931 10.408C40.1091 10.5787 40.4665 10.8347 40.7651 11.176C41.0638 11.5173 41.2185 11.9707 41.2291 12.536C41.2291 13.0373 41.0905 13.4853 40.8131 13.88C40.5358 14.2747 40.1411 14.584 39.6291 14.808C39.1278 15.032 38.5358 15.144 37.8531 15.144ZM51.28 10.376C51.28 10.7067 51.2587 11.0053 51.216 11.272H44.48C44.5333 11.976 44.7947 12.5413 45.264 12.968C45.7333 13.3947 46.3093 13.608 46.992 13.608C47.9733 13.608 48.6667 13.1973 49.072 12.376H51.04C50.7733 13.1867 50.288 13.8533 49.584 14.376C48.8907 14.888 48.0267 15.144 46.992 15.144C46.1493 15.144 45.392 14.9573 44.72 14.584C44.0587 14.2 43.536 13.6667 43.152 12.984C42.7787 12.2907 42.592 11.4907 42.592 10.584C42.592 9.67733 42.7733 8.88267 43.136 8.2C43.5093 7.50667 44.0267 6.97333 44.688 6.6C45.36 6.22667 46.128 6.04 46.992 6.04C47.824 6.04 48.5653 6.22133 49.216 6.584C49.8667 6.94667 50.3733 7.45867 50.736 8.12C51.0987 8.77067 51.28 9.52267 51.28 10.376ZM49.376 9.8C49.3653 9.128 49.1253 8.58933 48.656 8.184C48.1867 7.77867 47.6053 7.576 46.912 7.576C46.2827 7.576 45.744 7.77867 45.296 8.184C44.848 8.57867 44.5813 9.11733 44.496 9.8H49.376ZM65.2153 6.184V15H63.3913V13.96C63.1033 14.3227 62.7246 14.6107 62.2553 14.824C61.7966 15.0267 61.3059 15.128 60.7833 15.128C60.0899 15.128 59.4659 14.984 58.9113 14.696C58.3673 14.408 57.9353 13.9813 57.6153 13.416C57.3059 12.8507 57.1513 12.168 57.1513 11.368V6.184H58.9593V11.096C58.9593 11.8853 59.1566 12.4933 59.5513 12.92C59.9459 13.336 60.4846 13.544 61.1673 13.544C61.8499 13.544 62.3886 13.336 62.7833 12.92C63.1886 12.4933 63.3913 11.8853 63.3913 11.096V6.184H65.2153ZM70.8219 15.144C70.1285 15.144 69.5045 15.0213 68.9499 14.776C68.4059 14.52 67.9739 14.1787 67.6539 13.752C67.3339 13.3147 67.1632 12.8293 67.1419 12.296H69.0299C69.0619 12.6693 69.2379 12.984 69.5579 13.24C69.8885 13.4853 70.2992 13.608 70.7899 13.608C71.3019 13.608 71.6965 13.512 71.9739 13.32C72.2619 13.1173 72.4059 12.8613 72.4059 12.552C72.4059 12.2213 72.2459 11.976 71.9259 11.816C71.6165 11.656 71.1205 11.48 70.4379 11.288C69.7765 11.1067 69.2379 10.9307 68.8219 10.76C68.4059 10.5893 68.0432 10.328 67.7339 9.976C67.4352 9.624 67.2859 9.16 67.2859 8.584C67.2859 8.11467 67.4245 7.688 67.7019 7.304C67.9792 6.90933 68.3739 6.6 68.8859 6.376C69.4085 6.152 70.0059 6.04 70.6779 6.04C71.6805 6.04 72.4859 6.296 73.0939 6.808C73.7125 7.30933 74.0432 7.99733 74.0859 8.872H72.2619C72.2299 8.47733 72.0699 8.16267 71.7819 7.928C71.4939 7.69333 71.1045 7.576 70.6139 7.576C70.1339 7.576 69.7659 7.66667 69.5099 7.848C69.2539 8.02933 69.1259 8.26933 69.1259 8.568C69.1259 8.80267 69.2112 9 69.3819 9.16C69.5525 9.32 69.7605 9.448 70.0059 9.544C70.2512 9.62933 70.6139 9.74133 71.0939 9.88C71.7339 10.0507 72.2565 10.2267 72.6619 10.408C73.0779 10.5787 73.4352 10.8347 73.7339 11.176C74.0325 11.5173 74.1872 11.9707 74.1979 12.536C74.1979 13.0373 74.0592 13.4853 73.7819 13.88C73.5045 14.2747 73.1099 14.584 72.5979 14.808C72.0965 15.032 71.5045 15.144 70.8219 15.144ZM84.2488 10.376C84.2488 10.7067 84.2274 11.0053 84.1848 11.272H77.4488C77.5021 11.976 77.7634 12.5413 78.2328 12.968C78.7021 13.3947 79.2781 13.608 79.9608 13.608C80.9421 13.608 81.6354 13.1973 82.0408 12.376H84.0087C83.7421 13.1867 83.2568 13.8533 82.5528 14.376C81.8594 14.888 80.9954 15.144 79.9608 15.144C79.1181 15.144 78.3608 14.9573 77.6888 14.584C77.0274 14.2 76.5048 13.6667 76.1208 12.984C75.7474 12.2907 75.5608 11.4907 75.5608 10.584C75.5608 9.67733 75.7421 8.88267 76.1048 8.2C76.4781 7.50667 76.9954 6.97333 77.6568 6.6C78.3288 6.22667 79.0968 6.04 79.9608 6.04C80.7928 6.04 81.5341 6.22133 82.1848 6.584C82.8354 6.94667 83.3421 7.45867 83.7048 8.12C84.0674 8.77067 84.2488 9.52267 84.2488 10.376ZM82.3448 9.8C82.3341 9.128 82.0941 8.58933 81.6248 8.184C81.1554 7.77867 80.5741 7.576 79.8808 7.576C79.2514 7.576 78.7128 7.77867 78.2648 8.184C77.8168 8.57867 77.5501 9.11733 77.4648 9.8H82.3448ZM89.592 10.552C89.592 9.66667 89.7733 8.88267 90.136 8.2C90.5093 7.51733 91.0107 6.98933 91.64 6.616C92.28 6.232 92.984 6.04 93.752 6.04C94.4453 6.04 95.048 6.17867 95.56 6.456C96.0827 6.72267 96.4987 7.05867 96.808 7.464V6.184H98.648V15H96.808V13.688C96.4987 14.104 96.0773 14.4507 95.544 14.728C95.0107 15.0053 94.4027 15.144 93.72 15.144C92.9627 15.144 92.2693 14.952 91.64 14.568C91.0107 14.1733 90.5093 13.6293 90.136 12.936C89.7733 12.232 89.592 11.4373 89.592 10.552ZM96.808 10.584C96.808 9.976 96.68 9.448 96.424 9C96.1787 8.552 95.8533 8.21067 95.448 7.976C95.0427 7.74133 94.6053 7.624 94.136 7.624C93.6667 7.624 93.2293 7.74133 92.824 7.976C92.4187 8.2 92.088 8.536 91.832 8.984C91.5867 9.42133 91.464 9.944 91.464 10.552C91.464 11.16 91.5867 11.6933 91.832 12.152C92.088 12.6107 92.4187 12.9627 92.824 13.208C93.24 13.4427 93.6773 13.56 94.136 13.56C94.6053 13.56 95.0427 13.4427 95.448 13.208C95.8533 12.9733 96.1787 12.632 96.424 12.184C96.68 11.7253 96.808 11.192 96.808 10.584ZM103.172 7.672V12.552C103.172 12.8827 103.246 13.1227 103.396 13.272C103.556 13.4107 103.822 13.48 104.196 13.48H105.316V15H103.876C103.054 15 102.425 14.808 101.988 14.424C101.55 14.04 101.332 13.416 101.332 12.552V7.672H100.292V6.184H101.332V3.992H103.172V6.184H105.316V7.672H103.172ZM112.977 3.16V15H111.153V3.16H112.977ZM123.452 10.376C123.452 10.7067 123.431 11.0053 123.388 11.272H116.652C116.705 11.976 116.967 12.5413 117.436 12.968C117.905 13.3947 118.481 13.608 119.164 13.608C120.145 13.608 120.839 13.1973 121.244 12.376H123.212C122.945 13.1867 122.46 13.8533 121.756 14.376C121.063 14.888 120.199 15.144 119.164 15.144C118.321 15.144 117.564 14.9573 116.892 14.584C116.231 14.2 115.708 13.6667 115.324 12.984C114.951 12.2907 114.764 11.4907 114.764 10.584C114.764 9.67733 114.945 8.88267 115.308 8.2C115.681 7.50667 116.199 6.97333 116.86 6.6C117.532 6.22667 118.3 6.04 119.164 6.04C119.996 6.04 120.737 6.22133 121.388 6.584C122.039 6.94667 122.545 7.45867 122.908 8.12C123.271 8.77067 123.452 9.52267 123.452 10.376ZM121.548 9.8C121.537 9.128 121.297 8.58933 120.828 8.184C120.359 7.77867 119.777 7.576 119.084 7.576C118.455 7.576 117.916 7.77867 117.468 8.184C117.02 8.57867 116.753 9.11733 116.668 9.8H121.548ZM124.639 10.552C124.639 9.66667 124.82 8.88267 125.183 8.2C125.556 7.51733 126.058 6.98933 126.687 6.616C127.327 6.232 128.031 6.04 128.799 6.04C129.492 6.04 130.095 6.17867 130.607 6.456C131.13 6.72267 131.546 7.05867 131.855 7.464V6.184H133.695V15H131.855V13.688C131.546 14.104 131.124 14.4507 130.591 14.728C130.058 15.0053 129.45 15.144 128.767 15.144C128.01 15.144 127.316 14.952 126.687 14.568C126.058 14.1733 125.556 13.6293 125.183 12.936C124.82 12.232 124.639 11.4373 124.639 10.552ZM131.855 10.584C131.855 9.976 131.727 9.448 131.471 9C131.226 8.552 130.9 8.21067 130.495 7.976C130.09 7.74133 129.652 7.624 129.183 7.624C128.714 7.624 128.276 7.74133 127.871 7.976C127.466 8.2 127.135 8.536 126.879 8.984C126.634 9.42133 126.511 9.944 126.511 10.552C126.511 11.16 126.634 11.6933 126.879 12.152C127.135 12.6107 127.466 12.9627 127.871 13.208C128.287 13.4427 128.724 13.56 129.183 13.56C129.652 13.56 130.09 13.4427 130.495 13.208C130.9 12.9733 131.226 12.632 131.471 12.184C131.727 11.7253 131.855 11.192 131.855 10.584ZM139.291 15.144C138.597 15.144 137.973 15.0213 137.419 14.776C136.875 14.52 136.443 14.1787 136.123 13.752C135.803 13.3147 135.632 12.8293 135.611 12.296H137.499C137.531 12.6693 137.707 12.984 138.027 13.24C138.357 13.4853 138.768 13.608 139.259 13.608C139.771 13.608 140.165 13.512 140.443 13.32C140.731 13.1173 140.875 12.8613 140.875 12.552C140.875 12.2213 140.715 11.976 140.395 11.816C140.085 11.656 139.589 11.48 138.907 11.288C138.245 11.1067 137.707 10.9307 137.291 10.76C136.875 10.5893 136.512 10.328 136.203 9.976C135.904 9.624 135.755 9.16 135.755 8.584C135.755 8.11467 135.893 7.688 136.171 7.304C136.448 6.90933 136.843 6.6 137.355 6.376C137.877 6.152 138.475 6.04 139.147 6.04C140.149 6.04 140.955 6.296 141.563 6.808C142.181 7.30933 142.512 7.99733 142.555 8.872H140.731C140.699 8.47733 140.539 8.16267 140.251 7.928C139.963 7.69333 139.573 7.576 139.083 7.576C138.603 7.576 138.235 7.66667 137.979 7.848C137.723 8.02933 137.595 8.26933 137.595 8.568C137.595 8.80267 137.68 9 137.851 9.16C138.021 9.32 138.229 9.448 138.475 9.544C138.72 9.62933 139.083 9.74133 139.563 9.88C140.203 10.0507 140.725 10.2267 141.131 10.408C141.547 10.5787 141.904 10.8347 142.203 11.176C142.501 11.5173 142.656 11.9707 142.667 12.536C142.667 13.0373 142.528 13.4853 142.251 13.88C141.973 14.2747 141.579 14.584 141.067 14.808C140.565 15.032 139.973 15.144 139.291 15.144ZM146.766 7.672V12.552C146.766 12.8827 146.84 13.1227 146.99 13.272C147.15 13.4107 147.416 13.48 147.79 13.48H148.91V15H147.47C146.648 15 146.019 14.808 145.582 14.424C145.144 14.04 144.926 13.416 144.926 12.552V7.672H143.886V6.184H144.926V3.992H146.766V6.184H148.91V7.672H146.766ZM155.515 12.52C156.539 11.6347 157.344 10.9093 157.931 10.344C158.528 9.768 159.024 9.17067 159.419 8.552C159.814 7.93333 160.011 7.31467 160.011 6.696C160.011 6.056 159.856 5.55467 159.547 5.192C159.248 4.82933 158.774 4.648 158.123 4.648C157.494 4.648 157.003 4.85067 156.651 5.256C156.31 5.65067 156.128 6.184 156.107 6.856H154.347C154.379 5.64 154.742 4.712 155.435 4.072C156.139 3.42133 157.03 3.096 158.107 3.096C159.27 3.096 160.176 3.416 160.827 4.056C161.488 4.696 161.819 5.54933 161.819 6.616C161.819 7.384 161.622 8.12533 161.227 8.84C160.843 9.544 160.379 10.1787 159.835 10.744C159.302 11.2987 158.619 11.944 157.787 12.68L157.067 13.32H162.139V14.84H154.363V13.512L155.515 12.52ZM167.53 10.584C167.53 9.67733 167.711 8.88267 168.074 8.2C168.447 7.50667 168.959 6.97333 169.61 6.6C170.26 6.22667 171.007 6.04 171.85 6.04C172.916 6.04 173.796 6.296 174.49 6.808C175.194 7.30933 175.668 8.02933 175.914 8.968H173.946C173.786 8.53067 173.53 8.18933 173.178 7.944C172.826 7.69867 172.383 7.576 171.85 7.576C171.103 7.576 170.506 7.84267 170.058 8.376C169.62 8.89867 169.402 9.63467 169.402 10.584C169.402 11.5333 169.62 12.2747 170.058 12.808C170.506 13.3413 171.103 13.608 171.85 13.608C172.906 13.608 173.604 13.144 173.946 12.216H175.914C175.658 13.112 175.178 13.8267 174.474 14.36C173.77 14.8827 172.895 15.144 171.85 15.144C171.007 15.144 170.26 14.9573 169.61 14.584C168.959 14.2 168.447 13.6667 168.074 12.984C167.711 12.2907 167.53 11.4907 167.53 10.584ZM182.291 6.04C182.963 6.04 183.561 6.184 184.083 6.472C184.617 6.76 185.033 7.18667 185.331 7.752C185.641 8.31733 185.795 9 185.795 9.8V15H183.987V10.072C183.987 9.28267 183.79 8.68 183.395 8.264C183.001 7.83733 182.462 7.624 181.779 7.624C181.097 7.624 180.553 7.83733 180.147 8.264C179.753 8.68 179.555 9.28267 179.555 10.072V15H177.731V3.16H179.555V7.208C179.865 6.83467 180.254 6.54667 180.723 6.344C181.203 6.14133 181.726 6.04 182.291 6.04ZM187.514 10.552C187.514 9.66667 187.695 8.88267 188.058 8.2C188.431 7.51733 188.933 6.98933 189.562 6.616C190.202 6.232 190.906 6.04 191.674 6.04C192.367 6.04 192.97 6.17867 193.482 6.456C194.005 6.72267 194.421 7.05867 194.73 7.464V6.184H196.57V15H194.73V13.688C194.421 14.104 193.999 14.4507 193.466 14.728C192.933 15.0053 192.325 15.144 191.642 15.144C190.885 15.144 190.191 14.952 189.562 14.568C188.933 14.1733 188.431 13.6293 188.058 12.936C187.695 12.232 187.514 11.4373 187.514 10.552ZM194.73 10.584C194.73 9.976 194.602 9.448 194.346 9C194.101 8.552 193.775 8.21067 193.37 7.976C192.965 7.74133 192.527 7.624 192.058 7.624C191.589 7.624 191.151 7.74133 190.746 7.976C190.341 8.2 190.01 8.536 189.754 8.984C189.509 9.42133 189.386 9.944 189.386 10.552C189.386 11.16 189.509 11.6933 189.754 12.152C190.01 12.6107 190.341 12.9627 190.746 13.208C191.162 13.4427 191.599 13.56 192.058 13.56C192.527 13.56 192.965 13.4427 193.37 13.208C193.775 12.9733 194.101 12.632 194.346 12.184C194.602 11.7253 194.73 11.192 194.73 10.584ZM200.79 7.464C201.056 7.016 201.408 6.66933 201.846 6.424C202.294 6.168 202.822 6.04 203.43 6.04V7.928H202.966C202.251 7.928 201.707 8.10933 201.334 8.472C200.971 8.83467 200.79 9.464 200.79 10.36V15H198.966V6.184H200.79V7.464ZM204.498 10.552C204.498 9.66667 204.68 8.88267 205.042 8.2C205.416 7.51733 205.917 6.98933 206.546 6.616C207.186 6.232 207.89 6.04 208.658 6.04C209.352 6.04 209.954 6.17867 210.466 6.456C210.989 6.72267 211.405 7.05867 211.714 7.464V6.184H213.554V15H211.714V13.688C211.405 14.104 210.984 14.4507 210.45 14.728C209.917 15.0053 209.309 15.144 208.626 15.144C207.869 15.144 207.176 14.952 206.546 14.568C205.917 14.1733 205.416 13.6293 205.042 12.936C204.68 12.232 204.498 11.4373 204.498 10.552ZM211.714 10.584C211.714 9.976 211.586 9.448 211.33 9C211.085 8.552 210.76 8.21067 210.354 7.976C209.949 7.74133 209.512 7.624 209.042 7.624C208.573 7.624 208.136 7.74133 207.73 7.976C207.325 8.2 206.994 8.536 206.738 8.984C206.493 9.42133 206.37 9.944 206.37 10.552C206.37 11.16 206.493 11.6933 206.738 12.152C206.994 12.6107 207.325 12.9627 207.73 13.208C208.146 13.4427 208.584 13.56 209.042 13.56C209.512 13.56 209.949 13.4427 210.354 13.208C210.76 12.9733 211.085 12.632 211.33 12.184C211.586 11.7253 211.714 11.192 211.714 10.584ZM215.342 10.584C215.342 9.67733 215.523 8.88267 215.886 8.2C216.259 7.50667 216.771 6.97333 217.422 6.6C218.073 6.22667 218.819 6.04 219.662 6.04C220.729 6.04 221.609 6.296 222.302 6.808C223.006 7.30933 223.481 8.02933 223.726 8.968H221.758C221.598 8.53067 221.342 8.18933 220.99 7.944C220.638 7.69867 220.195 7.576 219.662 7.576C218.915 7.576 218.318 7.84267 217.87 8.376C217.433 8.89867 217.214 9.63467 217.214 10.584C217.214 11.5333 217.433 12.2747 217.87 12.808C218.318 13.3413 218.915 13.608 219.662 13.608C220.718 13.608 221.417 13.144 221.758 12.216H223.726C223.47 13.112 222.99 13.8267 222.286 14.36C221.582 14.8827 220.707 15.144 219.662 15.144C218.819 15.144 218.073 14.9573 217.422 14.584C216.771 14.2 216.259 13.6667 215.886 12.984C215.523 12.2907 215.342 11.4907 215.342 10.584ZM227.672 7.672V12.552C227.672 12.8827 227.746 13.1227 227.896 13.272C228.056 13.4107 228.322 13.48 228.696 13.48H229.816V15H228.376C227.554 15 226.925 14.808 226.488 14.424C226.05 14.04 225.832 13.416 225.832 12.552V7.672H224.792V6.184H225.832V3.992H227.672V6.184H229.816V7.672H227.672ZM239.577 10.376C239.577 10.7067 239.556 11.0053 239.513 11.272H232.777C232.83 11.976 233.092 12.5413 233.561 12.968C234.03 13.3947 234.606 13.608 235.289 13.608C236.27 13.608 236.964 13.1973 237.369 12.376H239.337C239.07 13.1867 238.585 13.8533 237.881 14.376C237.188 14.888 236.324 15.144 235.289 15.144C234.446 15.144 233.689 14.9573 233.017 14.584C232.356 14.2 231.833 13.6667 231.449 12.984C231.076 12.2907 230.889 11.4907 230.889 10.584C230.889 9.67733 231.07 8.88267 231.433 8.2C231.806 7.50667 232.324 6.97333 232.985 6.6C233.657 6.22667 234.425 6.04 235.289 6.04C236.121 6.04 236.862 6.22133 237.513 6.584C238.164 6.94667 238.67 7.45867 239.033 8.12C239.396 8.77067 239.577 9.52267 239.577 10.376ZM237.673 9.8C237.662 9.128 237.422 8.58933 236.953 8.184C236.484 7.77867 235.902 7.576 235.209 7.576C234.58 7.576 234.041 7.77867 233.593 8.184C233.145 8.57867 232.878 9.11733 232.793 9.8H237.673ZM243.196 7.464C243.463 7.016 243.815 6.66933 244.252 6.424C244.7 6.168 245.228 6.04 245.836 6.04V7.928H245.372C244.657 7.928 244.113 8.10933 243.74 8.472C243.377 8.83467 243.196 9.464 243.196 10.36V15H241.372V6.184H243.196V7.464ZM250.713 15.144C250.019 15.144 249.395 15.0213 248.841 14.776C248.297 14.52 247.865 14.1787 247.545 13.752C247.225 13.3147 247.054 12.8293 247.033 12.296H248.921C248.953 12.6693 249.129 12.984 249.449 13.24C249.779 13.4853 250.19 13.608 250.681 13.608C251.193 13.608 251.587 13.512 251.865 13.32C252.153 13.1173 252.297 12.8613 252.297 12.552C252.297 12.2213 252.137 11.976 251.817 11.816C251.507 11.656 251.011 11.48 250.329 11.288C249.667 11.1067 249.129 10.9307 248.713 10.76C248.297 10.5893 247.934 10.328 247.625 9.976C247.326 9.624 247.177 9.16 247.177 8.584C247.177 8.11467 247.315 7.688 247.593 7.304C247.87 6.90933 248.265 6.6 248.777 6.376C249.299 6.152 249.897 6.04 250.569 6.04C251.571 6.04 252.377 6.296 252.985 6.808C253.603 7.30933 253.934 7.99733 253.977 8.872H252.153C252.121 8.47733 251.961 8.16267 251.673 7.928C251.385 7.69333 250.995 7.576 250.505 7.576C250.025 7.576 249.657 7.66667 249.401 7.848C249.145 8.02933 249.017 8.26933 249.017 8.568C249.017 8.80267 249.102 9 249.273 9.16C249.443 9.32 249.651 9.448 249.897 9.544C250.142 9.62933 250.505 9.74133 250.985 9.88C251.625 10.0507 252.147 10.2267 252.553 10.408C252.969 10.5787 253.326 10.8347 253.625 11.176C253.923 11.5173 254.078 11.9707 254.089 12.536C254.089 13.0373 253.95 13.4853 253.673 13.88C253.395 14.2747 253.001 14.584 252.489 14.808C251.987 15.032 251.395 15.144 250.713 15.144ZM264.248 17.976C263.202 16.9733 262.397 15.6987 261.832 14.152C261.277 12.6053 261 10.9467 261 9.176C261 7.36267 261.298 5.65067 261.896 4.04C262.504 2.42933 263.394 1.10133 264.568 0.0559998H266.456V0.231999C265.229 1.36267 264.306 2.71733 263.688 4.296C263.069 5.87467 262.76 7.50133 262.76 9.176C262.76 10.7867 263.048 12.344 263.624 13.848C264.2 15.352 265.037 16.6693 266.136 17.8V17.976H264.248ZM276.027 6.184L270.619 19.144H268.731L270.523 14.856L267.051 6.184H269.083L271.563 12.904L274.139 6.184H276.027ZM281.227 15.144C280.395 15.144 279.643 14.9573 278.971 14.584C278.299 14.2 277.771 13.6667 277.387 12.984C277.003 12.2907 276.811 11.4907 276.811 10.584C276.811 9.688 277.008 8.89333 277.403 8.2C277.798 7.50667 278.336 6.97333 279.019 6.6C279.702 6.22667 280.464 6.04 281.307 6.04C282.15 6.04 282.912 6.22667 283.595 6.6C284.278 6.97333 284.816 7.50667 285.211 8.2C285.606 8.89333 285.803 9.688 285.803 10.584C285.803 11.48 285.6 12.2747 285.195 12.968C284.79 13.6613 284.235 14.2 283.531 14.584C282.838 14.9573 282.07 15.144 281.227 15.144ZM281.227 13.56C281.696 13.56 282.134 13.448 282.539 13.224C282.955 13 283.291 12.664 283.547 12.216C283.803 11.768 283.931 11.224 283.931 10.584C283.931 9.944 283.808 9.40533 283.563 8.968C283.318 8.52 282.992 8.184 282.587 7.96C282.182 7.736 281.744 7.624 281.275 7.624C280.806 7.624 280.368 7.736 279.963 7.96C279.568 8.184 279.254 8.52 279.019 8.968C278.784 9.40533 278.667 9.944 278.667 10.584C278.667 11.5333 278.907 12.2693 279.387 12.792C279.878 13.304 280.491 13.56 281.227 13.56ZM295.59 6.184V15H293.766V13.96C293.478 14.3227 293.1 14.6107 292.63 14.824C292.172 15.0267 291.681 15.128 291.158 15.128C290.465 15.128 289.841 14.984 289.286 14.696C288.742 14.408 288.31 13.9813 287.99 13.416C287.681 12.8507 287.526 12.168 287.526 11.368V6.184H289.334V11.096C289.334 11.8853 289.532 12.4933 289.926 12.92C290.321 13.336 290.86 13.544 291.542 13.544C292.225 13.544 292.764 13.336 293.158 12.92C293.564 12.4933 293.766 11.8853 293.766 11.096V6.184H295.59ZM301.545 10.552C301.545 9.66667 301.726 8.88267 302.089 8.2C302.462 7.51733 302.964 6.98933 303.593 6.616C304.233 6.232 304.937 6.04 305.705 6.04C306.398 6.04 307.001 6.17867 307.513 6.456C308.036 6.72267 308.452 7.05867 308.761 7.464V6.184H310.601V15H308.761V13.688C308.452 14.104 308.03 14.4507 307.497 14.728C306.964 15.0053 306.356 15.144 305.673 15.144C304.916 15.144 304.222 14.952 303.593 14.568C302.964 14.1733 302.462 13.6293 302.089 12.936C301.726 12.232 301.545 11.4373 301.545 10.552ZM308.761 10.584C308.761 9.976 308.633 9.448 308.377 9C308.132 8.552 307.806 8.21067 307.401 7.976C306.996 7.74133 306.558 7.624 306.089 7.624C305.62 7.624 305.182 7.74133 304.777 7.976C304.372 8.2 304.041 8.536 303.785 8.984C303.54 9.42133 303.417 9.944 303.417 10.552C303.417 11.16 303.54 11.6933 303.785 12.152C304.041 12.6107 304.372 12.9627 304.777 13.208C305.193 13.4427 305.63 13.56 306.089 13.56C306.558 13.56 306.996 13.4427 307.401 13.208C307.806 12.9733 308.132 12.632 308.377 12.184C308.633 11.7253 308.761 11.192 308.761 10.584ZM314.821 7.464C315.088 7.016 315.44 6.66933 315.877 6.424C316.325 6.168 316.853 6.04 317.461 6.04V7.928H316.997C316.282 7.928 315.738 8.10933 315.365 8.472C315.002 8.83467 314.821 9.464 314.821 10.36V15H312.997V6.184H314.821V7.464ZM327.218 10.376C327.218 10.7067 327.196 11.0053 327.154 11.272H320.418C320.471 11.976 320.732 12.5413 321.202 12.968C321.671 13.3947 322.247 13.608 322.93 13.608C323.911 13.608 324.604 13.1973 325.01 12.376H326.977C326.711 13.1867 326.226 13.8533 325.522 14.376C324.828 14.888 323.964 15.144 322.93 15.144C322.087 15.144 321.33 14.9573 320.658 14.584C319.996 14.2 319.474 13.6667 319.09 12.984C318.716 12.2907 318.53 11.4907 318.53 10.584C318.53 9.67733 318.711 8.88267 319.074 8.2C319.447 7.50667 319.964 6.97333 320.626 6.6C321.298 6.22667 322.066 6.04 322.93 6.04C323.762 6.04 324.503 6.22133 325.154 6.584C325.804 6.94667 326.311 7.45867 326.674 8.12C327.036 8.77067 327.218 9.52267 327.218 10.376ZM325.314 9.8C325.303 9.128 325.063 8.58933 324.594 8.184C324.124 7.77867 323.543 7.576 322.85 7.576C322.22 7.576 321.682 7.77867 321.234 8.184C320.786 8.57867 320.519 9.11733 320.434 9.8H325.314ZM332.561 10.584C332.561 9.67733 332.742 8.88267 333.105 8.2C333.478 7.50667 333.99 6.97333 334.641 6.6C335.291 6.22667 336.038 6.04 336.881 6.04C337.947 6.04 338.827 6.296 339.521 6.808C340.225 7.30933 340.699 8.02933 340.945 8.968H338.977C338.817 8.53067 338.561 8.18933 338.209 7.944C337.857 7.69867 337.414 7.576 336.881 7.576C336.134 7.576 335.537 7.84267 335.089 8.376C334.651 8.89867 334.433 9.63467 334.433 10.584C334.433 11.5333 334.651 12.2747 335.089 12.808C335.537 13.3413 336.134 13.608 336.881 13.608C337.937 13.608 338.635 13.144 338.977 12.216H340.945C340.689 13.112 340.209 13.8267 339.505 14.36C338.801 14.8827 337.926 15.144 336.881 15.144C336.038 15.144 335.291 14.9573 334.641 14.584C333.99 14.2 333.478 13.6667 333.105 12.984C332.742 12.2907 332.561 11.4907 332.561 10.584ZM350.747 6.184V15H348.923V13.96C348.635 14.3227 348.256 14.6107 347.787 14.824C347.328 15.0267 346.837 15.128 346.315 15.128C345.621 15.128 344.997 14.984 344.443 14.696C343.899 14.408 343.467 13.9813 343.147 13.416C342.837 12.8507 342.683 12.168 342.683 11.368V6.184H344.491V11.096C344.491 11.8853 344.688 12.4933 345.083 12.92C345.477 13.336 346.016 13.544 346.699 13.544C347.381 13.544 347.92 13.336 348.315 12.92C348.72 12.4933 348.923 11.8853 348.923 11.096V6.184H350.747ZM354.977 7.464C355.244 7.016 355.596 6.66933 356.033 6.424C356.481 6.168 357.009 6.04 357.617 6.04V7.928H357.153C356.438 7.928 355.894 8.10933 355.521 8.472C355.158 8.83467 354.977 9.464 354.977 10.36V15H353.153V6.184H354.977V7.464ZM361.118 7.464C361.384 7.016 361.736 6.66933 362.174 6.424C362.622 6.168 363.15 6.04 363.758 6.04V7.928H363.294C362.579 7.928 362.035 8.10933 361.662 8.472C361.299 8.83467 361.118 9.464 361.118 10.36V15H359.294V6.184H361.118V7.464ZM373.514 10.376C373.514 10.7067 373.493 11.0053 373.45 11.272H366.714C366.768 11.976 367.029 12.5413 367.498 12.968C367.968 13.3947 368.544 13.608 369.226 13.608C370.208 13.608 370.901 13.1973 371.306 12.376H373.274C373.008 13.1867 372.522 13.8533 371.818 14.376C371.125 14.888 370.261 15.144 369.226 15.144C368.384 15.144 367.626 14.9573 366.954 14.584C366.293 14.2 365.77 13.6667 365.386 12.984C365.013 12.2907 364.826 11.4907 364.826 10.584C364.826 9.67733 365.008 8.88267 365.37 8.2C365.744 7.50667 366.261 6.97333 366.922 6.6C367.594 6.22667 368.362 6.04 369.226 6.04C370.058 6.04 370.8 6.22133 371.45 6.584C372.101 6.94667 372.608 7.45867 372.97 8.12C373.333 8.77067 373.514 9.52267 373.514 10.376ZM371.61 9.8C371.6 9.128 371.36 8.58933 370.89 8.184C370.421 7.77867 369.84 7.576 369.146 7.576C368.517 7.576 367.978 7.77867 367.53 8.184C367.082 8.57867 366.816 9.11733 366.73 9.8H371.61ZM379.757 6.04C380.451 6.04 381.069 6.184 381.613 6.472C382.168 6.76 382.6 7.18667 382.909 7.752C383.219 8.31733 383.373 9 383.373 9.8V15H381.565V10.072C381.565 9.28267 381.368 8.68 380.973 8.264C380.579 7.83733 380.04 7.624 379.357 7.624C378.675 7.624 378.131 7.83733 377.725 8.264C377.331 8.68 377.133 9.28267 377.133 10.072V15H375.309V6.184H377.133V7.192C377.432 6.82933 377.811 6.54667 378.269 6.344C378.739 6.14133 379.235 6.04 379.757 6.04ZM387.828 7.672V12.552C387.828 12.8827 387.903 13.1227 388.052 13.272C388.212 13.4107 388.479 13.48 388.852 13.48H389.972V15H388.532C387.711 15 387.081 14.808 386.644 14.424C386.207 14.04 385.988 13.416 385.988 12.552V7.672H384.948V6.184H385.988V3.992H387.828V6.184H389.972V7.672H387.828ZM393.477 3.16V15H391.653V3.16H393.477ZM403.808 6.184L398.4 19.144H396.512L398.304 14.856L394.832 6.184H396.864L399.344 12.904L401.92 6.184H403.808ZM417.325 6.184V15H415.501V13.96C415.213 14.3227 414.834 14.6107 414.365 14.824C413.906 15.0267 413.415 15.128 412.893 15.128C412.199 15.128 411.575 14.984 411.021 14.696C410.477 14.408 410.045 13.9813 409.725 13.416C409.415 12.8507 409.261 12.168 409.261 11.368V6.184H411.069V11.096C411.069 11.8853 411.266 12.4933 411.661 12.92C412.055 13.336 412.594 13.544 413.277 13.544C413.959 13.544 414.498 13.336 414.893 12.92C415.298 12.4933 415.501 11.8853 415.501 11.096V6.184H417.325ZM422.931 15.144C422.238 15.144 421.614 15.0213 421.059 14.776C420.515 14.52 420.083 14.1787 419.763 13.752C419.443 13.3147 419.273 12.8293 419.251 12.296H421.139C421.171 12.6693 421.347 12.984 421.667 13.24C421.998 13.4853 422.409 13.608 422.899 13.608C423.411 13.608 423.806 13.512 424.083 13.32C424.371 13.1173 424.515 12.8613 424.515 12.552C424.515 12.2213 424.355 11.976 424.035 11.816C423.726 11.656 423.23 11.48 422.547 11.288C421.886 11.1067 421.347 10.9307 420.931 10.76C420.515 10.5893 420.153 10.328 419.843 9.976C419.545 9.624 419.395 9.16 419.395 8.584C419.395 8.11467 419.534 7.688 419.811 7.304C420.089 6.90933 420.483 6.6 420.995 6.376C421.518 6.152 422.115 6.04 422.787 6.04C423.79 6.04 424.595 6.296 425.203 6.808C425.822 7.30933 426.153 7.99733 426.195 8.872H424.371C424.339 8.47733 424.179 8.16267 423.891 7.928C423.603 7.69333 423.214 7.576 422.723 7.576C422.243 7.576 421.875 7.66667 421.619 7.848C421.363 8.02933 421.235 8.26933 421.235 8.568C421.235 8.80267 421.321 9 421.491 9.16C421.662 9.32 421.87 9.448 422.115 9.544C422.361 9.62933 422.723 9.74133 423.203 9.88C423.843 10.0507 424.366 10.2267 424.771 10.408C425.187 10.5787 425.545 10.8347 425.843 11.176C426.142 11.5173 426.297 11.9707 426.307 12.536C426.307 13.0373 426.169 13.4853 425.891 13.88C425.614 14.2747 425.219 14.584 424.707 14.808C424.206 15.032 423.614 15.144 422.931 15.144ZM429.206 5.016C428.875 5.016 428.598 4.904 428.374 4.68C428.15 4.456 428.038 4.17867 428.038 3.848C428.038 3.51733 428.15 3.24 428.374 3.016C428.598 2.792 428.875 2.68 429.206 2.68C429.526 2.68 429.798 2.792 430.022 3.016C430.246 3.24 430.358 3.51733 430.358 3.848C430.358 4.17867 430.246 4.456 430.022 4.68C429.798 4.904 429.526 5.016 429.206 5.016ZM430.102 6.184V15H428.278V6.184H430.102ZM436.945 6.04C437.638 6.04 438.257 6.184 438.801 6.472C439.356 6.76 439.788 7.18667 440.097 7.752C440.406 8.31733 440.561 9 440.561 9.8V15H438.753V10.072C438.753 9.28267 438.556 8.68 438.161 8.264C437.766 7.83733 437.228 7.624 436.545 7.624C435.862 7.624 435.318 7.83733 434.913 8.264C434.518 8.68 434.321 9.28267 434.321 10.072V15H432.497V6.184H434.321V7.192C434.62 6.82933 434.998 6.54667 435.457 6.344C435.926 6.14133 436.422 6.04 436.945 6.04ZM446.44 6.04C447.122 6.04 447.725 6.17867 448.248 6.456C448.781 6.72267 449.197 7.05867 449.496 7.464V6.184H451.336V15.144C451.336 15.9547 451.165 16.6747 450.824 17.304C450.482 17.944 449.986 18.4453 449.336 18.808C448.696 19.1707 447.928 19.352 447.032 19.352C445.837 19.352 444.845 19.0693 444.056 18.504C443.266 17.9493 442.818 17.192 442.712 16.232H444.52C444.658 16.6907 444.952 17.0587 445.4 17.336C445.858 17.624 446.402 17.768 447.032 17.768C447.768 17.768 448.36 17.544 448.808 17.096C449.266 16.648 449.496 15.9973 449.496 15.144V13.672C449.186 14.088 448.765 14.44 448.232 14.728C447.709 15.0053 447.112 15.144 446.44 15.144C445.672 15.144 444.968 14.952 444.328 14.568C443.698 14.1733 443.197 13.6293 442.824 12.936C442.461 12.232 442.28 11.4373 442.28 10.552C442.28 9.66667 442.461 8.88267 442.824 8.2C443.197 7.51733 443.698 6.98933 444.328 6.616C444.968 6.232 445.672 6.04 446.44 6.04ZM449.496 10.584C449.496 9.976 449.368 9.448 449.112 9C448.866 8.552 448.541 8.21067 448.136 7.976C447.73 7.74133 447.293 7.624 446.824 7.624C446.354 7.624 445.917 7.74133 445.512 7.976C445.106 8.2 444.776 8.536 444.52 8.984C444.274 9.42133 444.152 9.944 444.152 10.552C444.152 11.16 444.274 11.6933 444.52 12.152C444.776 12.6107 445.106 12.9627 445.512 13.208C445.928 13.4427 446.365 13.56 446.824 13.56C447.293 13.56 447.73 13.4427 448.136 13.208C448.541 12.9733 448.866 12.632 449.112 12.184C449.368 11.7253 449.496 11.192 449.496 10.584ZM457.408 5V3.336H460.736V15H458.896V5H457.408ZM467.03 10.584C467.03 9.67733 467.211 8.88267 467.574 8.2C467.947 7.50667 468.459 6.97333 469.11 6.6C469.76 6.22667 470.507 6.04 471.35 6.04C472.416 6.04 473.296 6.296 473.99 6.808C474.694 7.30933 475.168 8.02933 475.414 8.968H473.446C473.286 8.53067 473.03 8.18933 472.678 7.944C472.326 7.69867 471.883 7.576 471.35 7.576C470.603 7.576 470.006 7.84267 469.558 8.376C469.12 8.89867 468.902 9.63467 468.902 10.584C468.902 11.5333 469.12 12.2747 469.558 12.808C470.006 13.3413 470.603 13.608 471.35 13.608C472.406 13.608 473.104 13.144 473.446 12.216H475.414C475.158 13.112 474.678 13.8267 473.974 14.36C473.27 14.8827 472.395 15.144 471.35 15.144C470.507 15.144 469.76 14.9573 469.11 14.584C468.459 14.2 467.947 13.6667 467.574 12.984C467.211 12.2907 467.03 11.4907 467.03 10.584ZM481.791 6.04C482.463 6.04 483.061 6.184 483.583 6.472C484.117 6.76 484.533 7.18667 484.831 7.752C485.141 8.31733 485.295 9 485.295 9.8V15H483.487V10.072C483.487 9.28267 483.29 8.68 482.895 8.264C482.501 7.83733 481.962 7.624 481.279 7.624C480.597 7.624 480.053 7.83733 479.647 8.264C479.253 8.68 479.055 9.28267 479.055 10.072V15H477.231V3.16H479.055V7.208C479.365 6.83467 479.754 6.54667 480.223 6.344C480.703 6.14133 481.226 6.04 481.791 6.04ZM487.014 10.552C487.014 9.66667 487.195 8.88267 487.558 8.2C487.931 7.51733 488.433 6.98933 489.062 6.616C489.702 6.232 490.406 6.04 491.174 6.04C491.867 6.04 492.47 6.17867 492.982 6.456C493.505 6.72267 493.921 7.05867 494.23 7.464V6.184H496.07V15H494.23V13.688C493.921 14.104 493.499 14.4507 492.966 14.728C492.433 15.0053 491.825 15.144 491.142 15.144C490.385 15.144 489.691 14.952 489.062 14.568C488.433 14.1733 487.931 13.6293 487.558 12.936C487.195 12.232 487.014 11.4373 487.014 10.552ZM494.23 10.584C494.23 9.976 494.102 9.448 493.846 9C493.601 8.552 493.275 8.21067 492.87 7.976C492.465 7.74133 492.027 7.624 491.558 7.624C491.089 7.624 490.651 7.74133 490.246 7.976C489.841 8.2 489.51 8.536 489.254 8.984C489.009 9.42133 488.886 9.944 488.886 10.552C488.886 11.16 489.009 11.6933 489.254 12.152C489.51 12.6107 489.841 12.9627 490.246 13.208C490.662 13.4427 491.099 13.56 491.558 13.56C492.027 13.56 492.465 13.4427 492.87 13.208C493.275 12.9733 493.601 12.632 493.846 12.184C494.102 11.7253 494.23 11.192 494.23 10.584ZM500.29 7.464C500.556 7.016 500.908 6.66933 501.346 6.424C501.794 6.168 502.322 6.04 502.93 6.04V7.928H502.466C501.751 7.928 501.207 8.10933 500.834 8.472C500.471 8.83467 500.29 9.464 500.29 10.36V15H498.466V6.184H500.29V7.464ZM503.998 10.552C503.998 9.66667 504.18 8.88267 504.542 8.2C504.916 7.51733 505.417 6.98933 506.046 6.616C506.686 6.232 507.39 6.04 508.158 6.04C508.852 6.04 509.454 6.17867 509.966 6.456C510.489 6.72267 510.905 7.05867 511.214 7.464V6.184H513.054V15H511.214V13.688C510.905 14.104 510.484 14.4507 509.95 14.728C509.417 15.0053 508.809 15.144 508.126 15.144C507.369 15.144 506.676 14.952 506.046 14.568C505.417 14.1733 504.916 13.6293 504.542 12.936C504.18 12.232 503.998 11.4373 503.998 10.552ZM511.214 10.584C511.214 9.976 511.086 9.448 510.83 9C510.585 8.552 510.26 8.21067 509.854 7.976C509.449 7.74133 509.012 7.624 508.542 7.624C508.073 7.624 507.636 7.74133 507.23 7.976C506.825 8.2 506.494 8.536 506.238 8.984C505.993 9.42133 505.87 9.944 505.87 10.552C505.87 11.16 505.993 11.6933 506.238 12.152C506.494 12.6107 506.825 12.9627 507.23 13.208C507.646 13.4427 508.084 13.56 508.542 13.56C509.012 13.56 509.449 13.4427 509.854 13.208C510.26 12.9733 510.585 12.632 510.83 12.184C511.086 11.7253 511.214 11.192 511.214 10.584ZM514.842 10.584C514.842 9.67733 515.023 8.88267 515.386 8.2C515.759 7.50667 516.271 6.97333 516.922 6.6C517.573 6.22667 518.319 6.04 519.162 6.04C520.229 6.04 521.109 6.296 521.802 6.808C522.506 7.30933 522.981 8.02933 523.226 8.968H521.258C521.098 8.53067 520.842 8.18933 520.49 7.944C520.138 7.69867 519.695 7.576 519.162 7.576C518.415 7.576 517.818 7.84267 517.37 8.376C516.933 8.89867 516.714 9.63467 516.714 10.584C516.714 11.5333 516.933 12.2747 517.37 12.808C517.818 13.3413 518.415 13.608 519.162 13.608C520.218 13.608 520.917 13.144 521.258 12.216H523.226C522.97 13.112 522.49 13.8267 521.786 14.36C521.082 14.8827 520.207 15.144 519.162 15.144C518.319 15.144 517.573 14.9573 516.922 14.584C516.271 14.2 515.759 13.6667 515.386 12.984C515.023 12.2907 514.842 11.4907 514.842 10.584ZM527.172 7.672V12.552C527.172 12.8827 527.246 13.1227 527.396 13.272C527.556 13.4107 527.822 13.48 528.196 13.48H529.316V15H527.876C527.054 15 526.425 14.808 525.988 14.424C525.55 14.04 525.332 13.416 525.332 12.552V7.672H524.292V6.184H525.332V3.992H527.172V6.184H529.316V7.672H527.172ZM539.077 10.376C539.077 10.7067 539.056 11.0053 539.013 11.272H532.277C532.33 11.976 532.592 12.5413 533.061 12.968C533.53 13.3947 534.106 13.608 534.789 13.608C535.77 13.608 536.464 13.1973 536.869 12.376H538.837C538.57 13.1867 538.085 13.8533 537.381 14.376C536.688 14.888 535.824 15.144 534.789 15.144C533.946 15.144 533.189 14.9573 532.517 14.584C531.856 14.2 531.333 13.6667 530.949 12.984C530.576 12.2907 530.389 11.4907 530.389 10.584C530.389 9.67733 530.57 8.88267 530.933 8.2C531.306 7.50667 531.824 6.97333 532.485 6.6C533.157 6.22667 533.925 6.04 534.789 6.04C535.621 6.04 536.362 6.22133 537.013 6.584C537.664 6.94667 538.17 7.45867 538.533 8.12C538.896 8.77067 539.077 9.52267 539.077 10.376ZM537.173 9.8C537.162 9.128 536.922 8.58933 536.453 8.184C535.984 7.77867 535.402 7.576 534.709 7.576C534.08 7.576 533.541 7.77867 533.093 8.184C532.645 8.57867 532.378 9.11733 532.293 9.8H537.173ZM542.696 7.464C542.963 7.016 543.315 6.66933 543.752 6.424C544.2 6.168 544.728 6.04 545.336 6.04V7.928H544.872C544.157 7.928 543.613 8.10933 543.24 8.472C542.877 8.83467 542.696 9.464 542.696 10.36V15H540.872V6.184H542.696V7.464ZM550.213 15.144C549.519 15.144 548.895 15.0213 548.341 14.776C547.797 14.52 547.365 14.1787 547.045 13.752C546.725 13.3147 546.554 12.8293 546.533 12.296H548.421C548.453 12.6693 548.629 12.984 548.949 13.24C549.279 13.4853 549.69 13.608 550.181 13.608C550.693 13.608 551.087 13.512 551.365 13.32C551.653 13.1173 551.797 12.8613 551.797 12.552C551.797 12.2213 551.637 11.976 551.317 11.816C551.007 11.656 550.511 11.48 549.829 11.288C549.167 11.1067 548.629 10.9307 548.213 10.76C547.797 10.5893 547.434 10.328 547.125 9.976C546.826 9.624 546.677 9.16 546.677 8.584C546.677 8.11467 546.815 7.688 547.093 7.304C547.37 6.90933 547.765 6.6 548.277 6.376C548.799 6.152 549.397 6.04 550.069 6.04C551.071 6.04 551.877 6.296 552.485 6.808C553.103 7.30933 553.434 7.99733 553.477 8.872H551.653C551.621 8.47733 551.461 8.16267 551.173 7.928C550.885 7.69333 550.495 7.576 550.005 7.576C549.525 7.576 549.157 7.66667 548.901 7.848C548.645 8.02933 548.517 8.26933 548.517 8.568C548.517 8.80267 548.602 9 548.773 9.16C548.943 9.32 549.151 9.448 549.397 9.544C549.642 9.62933 550.005 9.74133 550.485 9.88C551.125 10.0507 551.647 10.2267 552.053 10.408C552.469 10.5787 552.826 10.8347 553.125 11.176C553.423 11.5173 553.578 11.9707 553.589 12.536C553.589 13.0373 553.45 13.4853 553.173 13.88C552.895 14.2747 552.501 14.584 551.989 14.808C551.487 15.032 550.895 15.144 550.213 15.144ZM555.111 17.976V17.8C556.21 16.6693 557.047 15.352 557.623 13.848C558.199 12.344 558.487 10.7867 558.487 9.176C558.487 7.50133 558.178 5.87467 557.559 4.296C556.941 2.71733 556.018 1.36267 554.791 0.231999V0.0559998H556.679C557.853 1.10133 558.738 2.42933 559.335 4.04C559.943 5.65067 560.247 7.36267 560.247 9.176C560.247 10.9467 559.965 12.6053 559.399 14.152C558.845 15.6987 558.045 16.9733 556.999 17.976H555.111ZM564.17 15.112C563.84 15.112 563.562 15 563.338 14.776C563.114 14.552 563.002 14.2747 563.002 13.944C563.002 13.6133 563.114 13.336 563.338 13.112C563.562 12.888 563.84 12.776 564.17 12.776C564.49 12.776 564.762 12.888 564.986 13.112C565.21 13.336 565.322 13.6133 565.322 13.944C565.322 14.2747 565.21 14.552 564.986 14.776C564.762 15 564.49 15.112 564.17 15.112Z" fill="#FF0000" fill-opacity="0.7"/>
</svg>
